<svg viewBox="0 0 24 24" fill="none" xmlns="http://www.w3.org/2000/svg">
<path d="M9.6 16.575C8.85625 16.575 8.28438 16.3656 7.88438 15.9469C7.48438 15.5281 7.22813 14.9531 7.11563 14.2219L5.7 4.5375H2.90625C2.6375 4.5375 2.40313 4.4375 2.20313 4.2375C2.00938 4.0375 1.9125 3.8 1.9125 3.525C1.9125 3.25 2.00938 3.0125 2.20313 2.8125C2.40313 2.6125 2.6375 2.5125 2.90625 2.5125H6.06563C6.61563 2.5125 7.00313 2.62187 7.22813 2.84062C7.45938 3.05937 7.60313 3.3875 7.65938 3.825L9.14063 14.025C9.16563 14.2437 9.24063 14.4187 9.36563 14.55C9.49063 14.675 9.65 14.7375 9.84375 14.7375H20.4938C20.7375 14.7375 20.9531 14.8219 21.1406 14.9906C21.3281 15.1594 21.4219 15.3781 21.4219 15.6469C21.4219 15.9281 21.3281 16.1531 21.1406 16.3219C20.9531 16.4906 20.7375 16.575 20.4938 16.575H9.6ZM8.01563 13.0687L8.00625 11.2312H20.3813C20.5813 11.2312 20.7375 11.1687 20.85 11.0437C20.9688 10.9187 21.0438 10.7469 21.075 10.5281L21.6281 6.58125H7.17188L7.1625 4.73437H22.6594C23.0219 4.73437 23.3031 4.83125 23.5031 5.025C23.7031 5.2125 23.8031 5.45625 23.8031 5.75625C23.8031 5.81875 23.7969 5.8875 23.7844 5.9625C23.7781 6.03125 23.7688 6.1 23.7563 6.16875L23.0813 10.6969C22.975 11.4406 22.7188 12.0219 22.3125 12.4406C21.9125 12.8594 21.3406 13.0687 20.5969 13.0687H8.01563ZM10.3781 21.3563C10.0594 21.3563 9.77188 21.2813 9.51563 21.1313C9.25938 20.9813 9.05313 20.775 8.89688 20.5125C8.74063 20.2563 8.6625 19.9688 8.6625 19.65C8.6625 19.3375 8.74063 19.05 8.89688 18.7875C9.05313 18.5313 9.25938 18.3281 9.51563 18.1781C9.77188 18.0281 10.0594 17.9531 10.3781 17.9531C10.8469 17.9531 11.2469 18.1188 11.5781 18.45C11.9156 18.7813 12.0844 19.1813 12.0844 19.65C12.0844 20.1313 11.9156 20.5344 11.5781 20.8594C11.2469 21.1906 10.8469 21.3563 10.3781 21.3563ZM18.975 21.3563C18.5063 21.3563 18.1031 21.1906 17.7656 20.8594C17.4344 20.5344 17.2688 20.1313 17.2688 19.65C17.2688 19.3375 17.3438 19.05 17.4938 18.7875C17.65 18.5313 17.8563 18.3281 18.1125 18.1781C18.375 18.0281 18.6625 17.9531 18.975 17.9531C19.45 17.9531 19.8531 18.1188 20.1844 18.45C20.5156 18.7813 20.6813 19.1813 20.6813 19.65C20.6813 20.1313 20.5156 20.5344 20.1844 20.8594C19.8531 21.1906 19.45 21.3563 18.975 21.3563Z" fill="#404040"/>
</svg>
