<svg viewBox="0 0 24 24" fill="none" xmlns="http://www.w3.org/2000/svg">
<path d="M2.15625 9.5625C2.15625 8.5 2.35625 7.5 2.75625 6.5625C3.15625 5.625 3.7125 4.80312 4.425 4.09687C5.1375 3.38437 5.95938 2.82812 6.89063 2.42812C7.82813 2.02812 8.83125 1.82812 9.9 1.82812C10.9688 1.82812 11.9688 2.02812 12.9 2.42812C13.8375 2.82812 14.6625 3.38437 15.375 4.09687C16.0875 4.80312 16.6438 5.625 17.0438 6.5625C17.4438 7.5 17.6438 8.5 17.6438 9.5625C17.6438 10.3625 17.525 11.125 17.2875 11.85C17.0563 12.575 16.7313 13.2406 16.3125 13.8469L20.3531 17.9062C20.5031 18.0625 20.6156 18.2344 20.6906 18.4219C20.7719 18.6156 20.8125 18.8219 20.8125 19.0406C20.8125 19.3406 20.7438 19.6125 20.6063 19.8563C20.4688 20.1 20.2813 20.2906 20.0438 20.4281C19.8063 20.5719 19.5313 20.6438 19.2188 20.6438C19.0063 20.6438 18.8 20.6063 18.6 20.5313C18.4 20.4563 18.2219 20.3406 18.0656 20.1844L13.9875 16.1062C13.4 16.4812 12.7594 16.7781 12.0656 16.9969C11.3781 17.2094 10.6563 17.3156 9.9 17.3156C8.83125 17.3156 7.82813 17.1156 6.89063 16.7156C5.95938 16.3156 5.1375 15.7594 4.425 15.0469C3.7125 14.3344 3.15625 13.5094 2.75625 12.5719C2.35625 11.6344 2.15625 10.6312 2.15625 9.5625ZM4.43438 9.5625C4.43438 10.3187 4.575 11.0281 4.85625 11.6906C5.14375 12.3469 5.5375 12.925 6.0375 13.425C6.5375 13.925 7.11563 14.3187 7.77188 14.6062C8.43438 14.8875 9.14375 15.0281 9.9 15.0281C10.6563 15.0281 11.3625 14.8875 12.0188 14.6062C12.6813 14.3187 13.2625 13.925 13.7625 13.425C14.2625 12.925 14.6531 12.3469 14.9344 11.6906C15.2219 11.0281 15.3656 10.3187 15.3656 9.5625C15.3656 8.8125 15.2219 8.10937 14.9344 7.45312C14.6531 6.79062 14.2625 6.20937 13.7625 5.70937C13.2625 5.20312 12.6813 4.80937 12.0188 4.52812C11.3625 4.24687 10.6563 4.10625 9.9 4.10625C9.14375 4.10625 8.43438 4.24687 7.77188 4.52812C7.11563 4.80937 6.5375 5.20312 6.0375 5.70937C5.5375 6.20937 5.14375 6.79062 4.85625 7.45312C4.575 8.10937 4.43438 8.8125 4.43438 9.5625Z" fill="#aeadad"/>
</svg>
